:SAMPLES-PER-SECOND 30
:FRAME-RANGE 1-3549
:FULLY-SPECIFIED
:DEGREES
1220
root  11.0263 37.6472 37.2987 -170.077 5.27963 179.685
RightUpLeg  -38.7985 9.40221 -6.54068
RightLeg  29.2963 1.4063 0.625634
RightFoot  -0.386957 -0.601137 6.23481
RightToes  1.218e-010 1.26228e-014 -6.01869e-014
Spine  1.13031 -1.96938 2.60592
Spine1  -0.601667 -1.242 -2.59652
HEad  -15.714 -0.833113 -2.82363
LeftShoulder1  -0.607217 -9.88949 14.6664
LeftArm  -78.8098 -41.1862 13.9372
LeftForeArm  47.6238 -56.9191 -13.085
LeftHand  0.117221 8.37428 5.96539
RightShoulder  -0.293442 4.47095 -14.0204
RightArm  -83.1412 45.7384 -13.0927
RightForeArm  67.5343 54.4616 10.4035
RightHand  0.569282 -10.7371 -13.0229
LeftUpLeg  3.86683 2.80479 0.96062
LeftLeg  26.1159 4.28922 2.63636
LeftFoot  -17.5527 -0.176507 -5.1886
LeftToes  -1.43952e-010 7.51141e-011 -1.22592e-011
1221
root  11.3701 38.0831 36.6521 -169.048 5.47455 179.289
RightUpLeg  -37.4841 9.46848 -6.36608
RightLeg  26.8369 1.32803 0.509362
RightFoot  -0.0183961 -0.532848 5.36897
RightToes  1.218e-010 1.26228e-014 -6.01869e-014
Spine  1.57146 -1.46236 2.24373
Spine1  -0.910446 -0.64014 -3.0806
HEad  -11.2925 -1.9096 -1.00222
LeftShoulder1  -0.689349 -9.639 15.4943
LeftArm  -81.4348 -40.7142 15.0706
LeftForeArm  49.5653 -54.3826 -11.5771
LeftHand  0.170888 9.1512 6.46294
RightShoulder  -0.349396 4.60528 -14.7549
RightArm  -87.9423 46.0632 -13.676
RightForeArm  67.2478 47.7234 7.78262
RightHand  0.548811 -9.6804 -15.4662
LeftUpLeg  2.75301 4.15078 0.771775
LeftLeg  22.7336 7.3535 3.71524
LeftFoot  -19.2696 -0.248966 -5.25628
LeftToes  -1.43952e-010 7.51141e-011 -1.22592e-011
1222
root  11.6413 38.5112 36.166 -168.308 5.04568 178.883
RightUpLeg  -35.7786 9.64134 -6.46929
RightLeg  23.7825 0.563627 0.058025
RightFoot  0.713009 -0.521697 4.98321
RightToes  1.218e-010 1.26228e-014 -6.01869e-014
Spine  1.55891 -1.22457 2.47104
Spine1  -0.540003 -0.245627 -3.86163
HEad  -7.11684 -3.56498 -0.112478
LeftShoulder1  -0.658671 -9.13772 15.4582
LeftArm  -82.6298 -40.0651 16.0611
LeftForeArm  46.2347 -50.6863 -10.1434
LeftHand  0.140578 7.63061 8.76841
RightShoulder  -0.310577 4.13645 -14.4939
RightArm  -91.8542 46.3694 -15.4316
RightForeArm  67.8701 42.995 6.28626
RightHand  0.67326 -9.28892 -20.3478
LeftUpLeg  0.918967 4.37203 0.30284
LeftLeg  19.0357 8.69101 3.7332
LeftFoot  -21.0396 -0.385488 -6.02625
LeftToes  -1.43952e-010 7.51141e-011 -1.22592e-011
1223
root  11.8689 38.9046 35.7963 -167.676 3.71692 178.423
RightUpLeg  -33.9104 9.49435 -6.73883
RightLeg  20.5359 -0.708902 -0.502233
RightFoot  1.57749 -0.521379 4.69686
RightToes  1.218e-010 1.26228e-014 -6.01869e-014
Spine  1.45126 -1.23047 2.35861
Spine1  -0.20493 -0.277226 -3.69209
HEad  -3.80957 -5.42576 0.0195645
LeftShoulder1  -0.645597 -8.85523 15.4761
LeftArm  -81.9685 -39.643 16.9117
LeftForeArm  44.6637 -47.5833 -9.03366
LeftHand  0.177669 7.43156 11.4541
RightShoulder  -0.355069 3.94462 -15.3348
RightArm  -95.0449 45.86 -17.2482
RightForeArm  68.1227 37.6155 4.85194
RightHand  0.711259 -8.77231 -24.3959
LeftUpLeg  -1.62723 3.81939 -0.230577
LeftLeg  15.5649 7.42118 2.81077
LeftFoot  -21.4507 -0.437939 -6.39982
LeftToes  -1.43952e-010 7.51141e-011 -1.22592e-011
1224
root  12.0666 39.2349 35.5181 -167.322 2.18182 178.053
RightUpLeg  -31.8749 8.45056 -6.64025
RightLeg  17.4303 -1.18738 -0.622817
RightFoot  2.39263 -0.502507 4.3057
RightToes  1.218e-010 1.26228e-014 -6.01869e-014
Spine  1.37705 -1.2534 2.45203
Spine1  0.286477 -0.330443 -3.54726
HEad  -3.25728 -6.70755 0.375632
LeftShoulder1  -0.699069 -9.45913 15.6674
LeftArm  -82.1698 -38.6991 18.3402
LeftForeArm  44.109 -46.0647 -8.52622
LeftHand  0.104836 6.88147 10.0323
RightShoulder  -0.410156 3.82294 -16.3243
RightArm  -96.9743 44.6316 -19.2369
RightForeArm  67.6299 34.5925 4.15247
RightHand  0.520732 -7.98236 -23.4818
LeftUpLeg  -4.15278 3.18734 -0.700209
LeftLeg  12.766 4.00311 1.40765
LeftFoot  -21.9204 -0.526367 -7.09755
LeftToes  -1.43952e-010 7.51141e-011 -1.22592e-011
1225
root  12.2277 39.4457 35.2971 -167.339 1.28134 177.788
RightUpLeg  -30.0608 7.68314 -6.36688
RightLeg  15.1148 -1.25614 -0.738914
RightFoot  2.75317 -0.502376 4.21348
RightToes  1.218e-010 1.26228e-014 -6.01869e-014
Spine  1.36284 -1.1511 2.87711
Spine1  0.63508 -0.183825 -3.81986
HEad  -3.26446 -6.88182 0.497144
LeftShoulder1  -0.77549 -9.55194 16.3015
LeftArm  -82.2675 -37.9626 18.1258
LeftForeArm  44.2013 -45.449 -8.30862
LeftHand  0.096954 6.76295 10.1791
RightShoulder  -0.484285 4.07055 -17.2446
RightArm  -100.386 43.9442 -20.6444
RightForeArm  69.6493 32.8471 3.69071
RightHand  0.322403 -7.03084 -23.2065
LeftUpLeg  -6.19419 2.31443 -1.41032
LeftLeg  11.1821 1.08827 0.582601
LeftFoot  -22.258 -0.564705 -7.29836
LeftToes  -1.43952e-010 7.51141e-011 -1.22592e-011
1226
root  12.367 39.5384 35.1031 -167.743 1.16705 178.052
RightUpLeg  -28.5524 6.88453 -5.2631
RightLeg  13.9196 -0.458752 -0.854574
RightFoot  2.63513 -0.520484 4.39034
RightToes  1.218e-010 1.26228e-014 -6.01869e-014
Spine  1.28335 -0.731753 3.75022
Spine1  1.12496 0.267684 -4.12361
HEad  -3.21649 -6.57697 0.572539
LeftShoulder1  -0.791527 -9.51211 16.4659
LeftArm  -83.3102 -37.8392 18.97
LeftForeArm  43.4955 -42.5476 -7.41444
LeftHand  0.0795852 6.38553 11.6337
RightShoulder  -0.545978 4.3122 -17.9238
RightArm  -105.916 43.3541 -21.2794
RightForeArm  70.2958 31.1673 3.30614
RightHand  0.156636 -6.13933 -24.9111
LeftUpLeg  -7.25223 1.85666 -1.5851
LeftLeg  10.2501 -1.4004 -0.0468431
LeftFoot  -21.6924 -0.607388 -8.13011
LeftToes  -1.43952e-010 7.51141e-011 -1.22592e-011
1227
root  12.4985 39.5354 34.9083 -168.493 1.38293 178.744
RightUpLeg  -27.2769 6.52817 -4.01401
RightLeg  13.7836 0.308649 -0.640543
RightFoot  1.8116 -0.557637 4.94051
RightToes  1.218e-010 1.26228e-014 -6.01869e-014
Spine  1.5203 -0.205057 4.86087
Spine1  1.15904 0.891843 -4.63176
HEad  -2.87838 -6.21788 0.638238
LeftShoulder1  -0.882078 -9.33899 17.3804
LeftArm  -86.9648 -37.8126 19.5111
LeftForeArm  42.813 -37.3683 -5.97989
LeftHand  -0.00429406 5.53294 11.0936
RightShoulder  -0.582 4.25996 -18.5281
RightArm  -114.828 42.4563 -22.4231
RightForeArm  74.0955 28.4289 2.62579
RightHand  -0.0850846 -5.01461 -24.3274
LeftUpLeg  -7.83839 1.42168 -1.51713
LeftLeg  11.0752 -2.15319 0.19982
LeftFoot  -17.0505 -0.0513116 -3.07809
LeftToes  -1.43952e-010 7.51141e-011 -1.22592e-011
1228
root  12.6078 39.4358 34.7169 -169.292 1.56079 179.639
RightUpLeg  -26.7144 7.15555 -2.9702
RightLeg  15.0818 -0.0028813 -0.46657
RightFoot  0.512272 -0.549194 5.3193
RightToes  1.218e-010 1.26228e-014 -6.01869e-014
Spine  1.84768 0.125972 5.80645
Spine1  0.914056 1.19021 -4.58735
HEad  -2.65325 -5.43791 0.222977
LeftShoulder1  -0.960433 -9.05668 18.2855
LeftArm  -90.2814 -37.5241 20.4757
LeftForeArm  40.6212 -29.5544 -4.21086
LeftHand  -0.0782976 4.75492 11.6307
RightShoulder  -0.595186 3.60609 -19.6102
RightArm  -121.269 41.4077 -22.6933
RightForeArm  75.1736 23.7996 0.609088
RightHand  -0.291062 -3.97078 -23.1796
LeftUpLeg  -7.52907 -0.16551 -0.95534
LeftLeg  12.7253 -0.0759038 1.54166
LeftFoot  -16.5739 0.00596592 -2.04384
LeftToes  -1.43952e-010 7.51141e-011 -1.22592e-011
1229
root  12.7403 39.3946 34.5059 -169.792 1.56812 -179.762
RightUpLeg  -26.1747 8.72447 -2.42501
RightLeg  15.7765 -1.25565 -0.766693
RightFoot  -0.199114 -0.485288 4.95723
RightToes  1.218e-010 1.26228e-014 -6.01869e-014
Spine  1.54955 0.0597344 5.65754
Spine1  1.07036 0.992283 -4.10042
HEad  -2.7005 -4.23365 0.354693
LeftShoulder1  -1.03483 -8.41076 19.4974
LeftArm  -90.605 -36.6323 21.5382
LeftForeArm  36.8904 -20.5749 -1.30485
LeftHand  -0.244574 2.52895 9.61766
RightShoulder  -0.56423 2.99997 -20.0301
RightArm  -103.989 41.1536 -23.1656
RightForeArm  54.0947 16.5363 -8.96793
RightHand  -0.327823 -3.69991 -21.9708
LeftUpLeg  -6.73206 -0.245484 -0.191619
LeftLeg  13.0126 0.0617368 1.7704
LeftFoot  -16.9594 0.00321231 -2.00666
LeftToes  -1.43952e-010 7.51141e-011 -1.22592e-011
1230
root  12.8686 39.4121 34.3021 -169.966 1.54807 -179.448
RightUpLeg  -25.608 9.714 -1.995
RightLeg  15.7468 -2.19521 -1.10414
RightFoot  -0.620303 -0.482105 5.08852
RightToes  1.218e-010 1.26228e-014 -6.01869e-014
Spine  1.04544 -0.210625 4.97925
Spine1  1.3437 0.541191 -3.39834
HEad  -3.11641 -2.972 0.58653
LeftShoulder1  -1.00498 -7.3991 20.1305
LeftArm  -76.7806 -36.3041 22.1676
LeftForeArm  20.3159 -11.4776 4.71998
LeftHand  -0.240167 2.10061 8.24909
RightShoulder  -0.509442 2.36884 -20.1083
RightArm  -87.0363 41.5314 -22.02
RightForeArm  37.7569 8.12284 -13.9042
RightHand  -0.311354 -3.69353 -20.7405
LeftUpLeg  -5.89319 0.42961 0.381341
LeftLeg  12.3752 -0.61129 1.63065
LeftFoot  -16.9278 -0.00405127 -2.16292
LeftToes  -1.43952e-010 7.51141e-011 -1.22592e-011
1231
root  12.9668 39.4498 34.106 -169.917 1.7276 -179.195
RightUpLeg  -25.0525 9.3283 -1.35508
RightLeg  15.2978 -1.60667 -0.983227
RightFoot  -0.931284 -0.479366 5.18798
RightToes  1.218e-010 1.26228e-014 -6.01869e-014
Spine  0.590089 -0.331447 4.47991
Spine1  1.41701 0.297387 -2.9172
HEad  -3.41354 -1.96703 0.491262
LeftShoulder1  -0.99169 -6.93348 20.4685
LeftArm  -68.4284 -35.0871 20.9739
LeftForeArm  10.2889 -4.28458 5.90864
LeftHand  -0.195248 2.18553 6.7976
RightShoulder  -0.480755 2.51863 -19.2691
RightArm  -79.5249 41.1959 -19.5787
RightForeArm  30.3846 3.34176 -14.6268
RightHand  -0.314345 -3.6544 -20.4707
LeftUpLeg  -5.16327 1.32985 0.85786
LeftLeg  11.4621 -1.18081 1.47072
LeftFoot  -16.7383 0.00118126 -2.10388
LeftToes  -1.43952e-010 7.51141e-011 -1.22592e-011
1232
root  13.0348 39.4787 33.9338 -169.707 2.02905 -178.957
RightUpLeg  -24.7222 8.77749 -0.779151
RightLeg  14.8238 -0.686573 -0.784995
RightFoot  -1.10028 -0.472535 5.18504
RightToes  1.218e-010 1.26228e-014 -6.01869e-014
Spine  0.316775 -0.149751 4.48796
Spine1  1.47557 0.448475 -2.8176
HEad  -4.13371 -1.55596 0.270682
LeftShoulder1  -0.858684 -6.51275 19.3997
LeftArm  -63.0287 -33.8162 19.4418
LeftForeArm  5.01481 -0.982574 5.64384
LeftHand  -0.162523 2.55669 6.26316
RightShoulder  -0.405128 2.60097 -17.6635
RightArm  -76.7599 40.6731 -16.9412
RightForeArm  26.7139 0.828417 -15.0436
RightHand  -0.228016 -4.16329 -20.7566
LeftUpLeg  -4.68583 2.26947 1.38054
LeftLeg  10.666 -1.8287 1.06824
LeftFoot  -16.567 -0.00798669 -2.35113
LeftToes  -1.43952e-010 7.51141e-011 -1.22592e-011
